<svg id="Layer_1" data-name="Layer 1" xmlns="http://www.w3.org/2000/svg" viewBox="0 0 105.29 105.29"><defs><style>.cls-1{fill:#cecece;}.cls-2{fill:#6a7b86;}</style></defs><title>Artboard 31</title><path class="cls-1" d="M52.62,0a52.65,52.65,0,1,0,52.67,52.62A52.65,52.65,0,0,0,52.62,0ZM85,64.42"/><path class="cls-2" d="M75.39,28.72H29.89a1,1,0,0,0-1,1V81.28a1,1,0,0,0,1,1H56a4,4,0,0,0,2.73-1.06l16.35-15a4,4,0,0,0,1.3-3V29.72A1,1,0,0,0,75.39,28.72ZM30.89,80.28V30.72h43.5V63.27a1.84,1.84,0,0,1,0,.33H63.26a7.08,7.08,0,0,0-7.07,7.07v9.6H30.89ZM58.19,79V70.67a5.08,5.08,0,0,1,5.07-5.07h9.56Zm3.55-37.68H37.48v-2H61.74ZM37.48,71.18H49.61v2H37.48Zm0-10.61h18.2v2H37.48ZM67.81,52H37.48V50H67.81Z"/></svg>