<svg id="Layer_1" data-name="Layer 1" xmlns="http://www.w3.org/2000/svg" viewBox="0 0 32.31 36.43"><defs><style>.cls-1{fill:#fff;}</style></defs><title>cv</title><path class="cls-1" d="M31.63,0H.68A.67.67,0,0,0,0,.68V35.75a.67.67,0,0,0,.68.68H18.45a2.72,2.72,0,0,0,1.85-.72L31.42,25.52a2.76,2.76,0,0,0,.89-2V.68A.68.68,0,0,0,31.63,0ZM1.36,35.07V1.36H31V23.5a.91.91,0,0,1,0,.23H23.37a4.8,4.8,0,0,0-4.8,4.8v6.52l-.12,0Zm18.57-.86V28.53a3.44,3.44,0,0,1,3.44-3.44h6.51ZM16.54,6.29H5.84V4.93h10.7Zm0,6.63H5.84V11.56h10.7Zm-10.7,16h8.25v1.36H5.84Zm0-6.11H18.22v1.36H5.84Zm20.63-4H5.84V17.42H26.47ZM26.24,4.63v8.11h0a3.89,3.89,0,0,0-2.76-3.45,1.7,1.7,0,1,0-1.45,0,3.89,3.89,0,0,0-2.76,3.45h0V4.63Zm0,0v8.11H19.17V4.63h7.07M26.92,4H18.49v9.47h8.43V4Z"/></svg>