<svg id="Layer_1" data-name="Layer 1" xmlns="http://www.w3.org/2000/svg" viewBox="0 0 18 21.07"><defs><style>.cls-1{fill:#fff;}</style></defs><title>download</title><path class="cls-1" d="M9.85,13.84l.77-.78,4.82-4.87a.81.81,0,0,1,1.16-.06.78.78,0,0,1,0,1.16c-.84.87-1.69,1.74-2.54,2.6l-4.32,4.4a.84.84,0,0,1-1.32,0l-6.95-7A.8.8,0,0,1,1.53,8a.77.77,0,0,1,.9,0,2.73,2.73,0,0,1,.25.23L8,13.62c.06.06.11.13.17.2l.07,0v-.27c0-4.16,0-8.33,0-12.49A1.47,1.47,0,0,1,8.38.38.75.75,0,0,1,9.23,0a.78.78,0,0,1,.6.68,2.55,2.55,0,0,1,0,.39V13.84ZM1.61,19.12c0-.83,0-1.67,0-2.51A.72.72,0,0,0,1,15.94a.75.75,0,0,0-.8.21.85.85,0,0,0-.23.64v3.34a.84.84,0,0,0,1,.94h16.1a.84.84,0,0,0,.95-1V16.87a2.45,2.45,0,0,0,0-.27.76.76,0,0,0-.51-.65.81.81,0,0,0-1.08.83v2.66H1.61Z"/></svg>