<svg id="Layer_1" data-name="Layer 1" xmlns="http://www.w3.org/2000/svg" viewBox="0 0 40 40"><defs><style>.cls-1{fill:#6a8c2f;}.cls-2{fill:#fff;}</style></defs><title>downloadCircle</title><circle class="cls-1" cx="20" cy="20" r="20"/><path class="cls-2" d="M20.85,22.82l.77-.78,4.82-4.87a.81.81,0,0,1,1.16-.06.78.78,0,0,1,0,1.16c-.84.87-1.69,1.73-2.54,2.6l-4.32,4.4a.84.84,0,0,1-1.32,0q-3.48-3.48-6.95-7a.8.8,0,0,1,.07-1.3.77.77,0,0,1,.9,0,2.73,2.73,0,0,1,.25.23L19,22.6c.06.06.11.13.17.2l.07,0V22.5c0-4.16,0-8.33,0-12.49a1.47,1.47,0,0,1,.15-.65A.75.75,0,0,1,20.23,9a.78.78,0,0,1,.6.68,2.55,2.55,0,0,1,0,.39V22.82Z"/><path class="cls-2" d="M12.61,28.42H27.39V25.76a.81.81,0,0,1,1.08-.83.76.76,0,0,1,.51.65,2.45,2.45,0,0,1,0,.27v3.24a.84.84,0,0,1-.95,1H12a.84.84,0,0,1-.95-.94V25.77a.85.85,0,0,1,.23-.64.75.75,0,0,1,.8-.21.72.72,0,0,1,.55.67c0,.84,0,1.68,0,2.51Z"/></svg>