<svg id="Layer_1" data-name="Layer 1" xmlns="http://www.w3.org/2000/svg" viewBox="0 0 105.29 105.29"><defs><style>.cls-1{fill:#cecece;}.cls-2{fill:#6a7b86;}</style></defs><title>dropboxCircle</title><path class="cls-1" d="M52.62,0a52.65,52.65,0,1,0,52.67,52.62A52.65,52.65,0,0,0,52.62,0ZM85,64.42"/><path class="cls-2" d="M70,50l11.39-9.46L63.43,28.4,52.06,38.24,40.69,28.4,22.75,40.54,34.14,50,22.75,59.46l12,8.15v5.85l17.3,10.75,17.3-10.75v-5.9l12-8.1Zm-32.7,0,14.78-9.46L66.84,50,52.06,59.46Zm31.19,1.13,9.85,8.18-14.75,10-10-8.63Zm-4.9-20.42,14.75,10-9.85,8.18L53.59,39.34Zm-23,0,10,8.63L35.65,48.87,25.8,40.69Zm-4.9,20.42,14.88,9.53-10,8.63-14.75-10ZM67.56,72.44,52.09,82.05,36.63,72.44V68.85l4.06,2.75,11.37-9.84L63.43,71.6l4.13-2.8Z"/></svg>