<svg id="Layer_1" data-name="Layer 1" xmlns="http://www.w3.org/2000/svg" viewBox="0 0 58.62 55.81"><defs><style>.cls-1{fill:#6a7b86;}</style></defs><title>dropbox</title><path class="cls-1" d="M47.23,21.6l11.39-9.46L40.68,0,29.31,9.84,17.94,0,0,12.14,11.39,21.6,0,31.05l12.05,8.16v5.84l17.3,10.76L46.64,45.05V39.16l12-8.11Zm-32.7,0,14.78-9.46L44.09,21.6,29.31,31.06Zm31.2,1.13,9.84,8.18-14.75,10-10-8.63ZM40.82,2.3l14.75,10-9.84,8.17L30.84,10.94Zm-23,0,10,8.64L12.9,20.46,3.05,12.29ZM12.9,22.73l14.88,9.53-10,8.63-14.75-10ZM44.81,44,29.35,53.65,13.88,44V40.45l4.06,2.75,11.37-9.84L40.68,43.2l4.13-2.8Z"/></svg>