<svg id="Layer_1" data-name="Layer 1" xmlns="http://www.w3.org/2000/svg" viewBox="0 0 50.86 43.21"><defs><style>.cls-1{fill:#689e51;}</style></defs><title>erase</title><path class="cls-1" d="M27,41.62H49.81c.66,0,1,.29,1,.78s-.4.81-1,.81q-20.16,0-40.33,0a1.42,1.42,0,0,1-.92-.37Q4.62,38.93.71,35a2.11,2.11,0,0,1,0-3.18Q16.25,16.27,31.79.75A2.12,2.12,0,0,1,35,.74q7.2,7.2,14.4,14.41a2.53,2.53,0,0,1,.6.92,2.29,2.29,0,0,1-.81,2.53Q38,29.81,26.75,41l-.55.58Zm6.78-9.9Q40.92,24.61,48,17.49c.68-.68.69-.81,0-1.49L34.15,2.11c-.67-.66-.82-.66-1.5,0L18.42,16.35l-.38.41L33.39,32.1C33.51,32,33.66,31.86,33.8,31.72ZM16.76,18c-.13.12-.3.27-.45.42L2.16,32.61c-.72.72-.72.84,0,1.54,2.36,2.36,4.71,4.72,7.08,7.06a1.59,1.59,0,0,0,.95.4q6.62,0,13.22,0a1.21,1.21,0,0,0,.76-.26c2.62-2.59,5.22-5.2,7.82-7.8.06-.06.1-.13.13-.16Z"/></svg>