<svg id="Layer_1" data-name="Layer 1" xmlns="http://www.w3.org/2000/svg" viewBox="0 0 47.5 53.57"><defs><style>.cls-1{fill:#6a7b86;}</style></defs><title>file</title><path class="cls-1" d="M46.5,0H1A1,1,0,0,0,0,1V52.57a1,1,0,0,0,1,1H27.12a4.06,4.06,0,0,0,2.73-1.06l16.34-15a4,4,0,0,0,1.31-3V1A1,1,0,0,0,46.5,0ZM2,51.57V2H45.5V34.55a1.86,1.86,0,0,1,0,.33H34.37A7.08,7.08,0,0,0,27.3,42v9.6l-.18,0Zm27.3-1.28V42a5.08,5.08,0,0,1,5.07-5.07h9.56Zm3.55-37.67H8.58v-2H32.85ZM8.58,42.47H20.72v2H8.58Zm0-10.62h18.2v2H8.58Zm30.34-8.62H8.58v-2H38.92Z"/></svg>