<?xml version="1.0" encoding="UTF-8" standalone="no"?>
<!DOCTYPE svg PUBLIC "-//W3C//DTD SVG 1.1//EN" "http://www.w3.org/Graphics/SVG/1.1/DTD/svg11.dtd">
<svg version="1.1" xmlns="http://www.w3.org/2000/svg" xmlns:xlink="http://www.w3.org/1999/xlink" preserveAspectRatio="xMidYMid meet" viewBox="0 0 640 640" width="640" height="640"><defs><path d="M346.09 1.05L359 2.36L371.75 4.17L384.34 6.48L396.75 9.27L408.97 12.54L421 16.27L432.81 20.46L444.41 25.1L455.78 30.16L466.92 35.66L477.8 41.56L488.43 47.87L498.78 54.58L508.86 61.66L518.64 69.12L528.13 76.94L537.3 85.11L546.16 93.63L554.68 102.47L562.86 111.64L570.69 121.12L578.16 130.9L585.25 140.97L591.97 151.32L598.29 161.93L604.2 172.81L609.71 183.94L614.79 195.31L619.43 206.9L623.63 218.72L627.38 230.74L630.66 242.96L633.46 255.36L635.78 267.95L637.61 280.7L638.92 293.6L639.73 306.66L640 319.85L640 319.91L639.74 333.1L638.95 346.16L637.64 359.07L635.83 371.82L633.52 384.41L630.73 396.82L627.46 409.04L623.72 421.07L619.53 432.89L614.9 444.49L609.83 455.86L604.33 466.99L598.43 477.88L592.12 488.51L585.41 498.86L578.32 508.94L570.86 518.72L563.04 528.21L554.87 537.39L546.35 546.24L537.5 554.76L528.33 562.94L518.85 570.77L509.07 578.24L499 585.34L488.65 592.05L478.03 598.37L467.15 604.28L456.02 609.79L444.65 614.86L433.05 619.51L421.24 623.71L409.22 627.45L396.99 630.73L384.59 633.53L372 635.85L359.25 637.67L346.34 638.99L333.28 639.79L320.09 640.06L306.9 639.8L293.84 639.01L280.93 637.7L268.18 635.89L255.59 633.58L243.18 630.79L230.96 627.52L218.93 623.78L207.11 619.59L195.51 614.96L184.14 609.89L173.01 604.4L162.12 598.49L151.49 592.18L141.14 585.47L131.06 578.39L121.28 570.93L111.79 563.1L102.61 554.93L93.76 546.41L85.24 537.56L77.06 528.4L69.23 518.92L61.76 509.13L54.66 499.06L47.95 488.71L41.63 478.09L35.72 467.21L30.21 456.08L25.14 444.71L20.49 433.12L16.29 421.3L12.55 409.28L9.27 397.06L6.47 384.65L4.15 372.06L2.33 359.31L1.01 346.4L0.21 333.34L-0.06 320.15L0.2 306.96L0.99 293.9L2.3 280.99L4.11 268.24L6.42 255.65L9.21 243.24L12.48 231.02L16.22 218.99L20.41 207.17L25.04 195.57L30.11 184.2L35.6 173.07L41.51 162.18L47.82 151.56L54.53 141.2L61.61 131.12L69.07 121.34L76.9 111.85L85.07 102.68L93.59 93.82L102.44 85.3L111.6 77.12L121.09 69.29L130.87 61.82L140.94 54.72L151.29 48.01L161.91 41.69L172.79 35.78L183.92 30.28L195.29 25.2L206.88 20.55L218.7 16.35L230.72 12.61L242.94 9.33L255.35 6.53L267.94 4.21L280.69 2.39L293.6 1.07L306.66 0.27L319.85 0L333.04 0.26L346.09 1.05Z" id="a1HwOtXVhZ"></path><path d="M460.89 170.76L461.13 170.78L461.37 170.82L461.6 170.86L461.83 170.91L462.06 170.96L462.28 171.03L462.5 171.1L462.72 171.19L462.93 171.27L463.13 171.37L463.34 171.48L463.53 171.59L463.72 171.7L463.91 171.83L464.09 171.96L464.27 172.1L464.44 172.24L464.6 172.39L464.76 172.55L464.91 172.71L465.06 172.88L465.2 173.05L465.33 173.23L465.45 173.41L465.57 173.59L465.68 173.79L465.78 173.98L465.87 174.18L465.96 174.39L466.04 174.59L466.11 174.8L466.17 175.02L466.22 175.24L466.26 175.46L466.3 175.68L466.32 175.91L466.34 176.14L466.34 176.37L466.34 365.02L466.34 365.5L466.33 365.98L466.31 366.46L466.27 366.93L466.23 367.41L466.18 367.88L466.11 368.36L466.04 368.83L465.95 369.29L465.86 369.76L465.75 370.22L465.64 370.68L465.51 371.14L465.38 371.59L465.23 372.05L465.08 372.49L464.91 372.94L464.74 373.38L464.55 373.82L464.36 374.25L464.16 374.68L463.94 375.11L463.72 375.53L463.49 375.95L463.25 376.36L463 376.77L462.74 377.17L462.47 377.57L462.19 377.96L461.91 378.35L461.61 378.73L461.31 379.11L460.99 379.48L460.67 379.84L460.34 380.2L460.01 380.56L459.66 380.9L459.3 381.24L458.94 381.58L458.57 381.91L361.61 466.35L361.28 466.63L360.94 466.91L360.59 467.18L360.24 467.45L359.89 467.71L359.53 467.96L359.17 468.2L358.8 468.44L358.43 468.67L358.05 468.9L357.67 469.11L357.29 469.33L356.9 469.53L356.51 469.73L356.12 469.92L355.72 470.1L355.32 470.28L354.92 470.45L354.51 470.61L354.1 470.77L353.68 470.91L353.27 471.06L352.85 471.19L352.43 471.32L352 471.43L351.58 471.55L351.15 471.65L350.72 471.75L350.28 471.84L349.85 471.92L349.41 471.99L348.97 472.06L348.53 472.12L348.09 472.17L347.65 472.21L347.2 472.25L346.76 472.28L346.31 472.3L345.86 472.31L345.41 472.32L190.42 472.32L190.18 472.31L189.94 472.3L189.7 472.27L189.46 472.24L189.23 472.2L189 472.15L188.77 472.09L188.55 472.03L188.33 471.96L188.11 471.87L187.9 471.78L187.69 471.69L187.49 471.58L187.3 471.47L187.1 471.35L186.92 471.23L186.74 471.1L186.56 470.96L186.39 470.82L186.23 470.67L186.07 470.51L185.92 470.35L185.77 470.18L185.63 470.01L185.5 469.83L185.38 469.65L185.26 469.47L185.15 469.27L185.05 469.08L184.95 468.88L184.87 468.67L184.79 468.47L184.72 468.25L184.66 468.04L184.61 467.82L184.57 467.6L184.53 467.38L184.51 467.15L184.49 466.92L184.49 466.69L184.49 176.37L184.49 176.14L184.51 175.91L184.53 175.68L184.57 175.46L184.61 175.24L184.66 175.02L184.72 174.8L184.79 174.59L184.87 174.39L184.95 174.18L185.05 173.98L185.15 173.79L185.26 173.59L185.38 173.41L185.5 173.23L185.63 173.05L185.77 172.88L185.92 172.71L186.07 172.55L186.23 172.39L186.39 172.24L186.56 172.1L186.74 171.96L186.92 171.83L187.1 171.7L187.3 171.59L187.49 171.48L187.69 171.37L187.9 171.27L188.11 171.19L188.33 171.1L188.55 171.03L188.77 170.96L189 170.91L189.23 170.86L189.46 170.82L189.7 170.78L189.94 170.76L190.18 170.75L190.42 170.74L460.41 170.74L460.65 170.75L460.89 170.76ZM196.36 461.06L345.41 461.23L346.48 461.23L346.48 407.18L346.48 407.18L346.48 407.14L346.48 407.09L346.48 407.01L346.51 405.37L346.61 403.74L346.78 402.14L347.02 400.55L347.32 398.98L347.69 397.43L348.11 395.91L348.6 394.41L349.15 392.94L349.76 391.49L350.42 390.08L351.14 388.69L351.91 387.33L352.74 386.01L353.62 384.72L354.55 383.46L355.53 382.24L356.55 381.06L357.63 379.92L358.74 378.81L359.9 377.75L361.1 376.73L362.35 375.75L363.63 374.82L364.95 373.94L366.31 373.1L367.7 372.31L369.13 371.57L370.59 370.89L372.08 370.25L373.6 369.67L375.16 369.15L376.73 368.68L378.34 368.27L379.97 367.92L381.62 367.63L383.29 367.4L384.99 367.24L386.7 367.14L388.43 367.1L454.47 367.1L454.48 367.05L454.48 367.01L454.49 366.96L454.49 366.91L454.49 366.87L454.5 366.82L454.5 366.78L454.5 366.73L454.5 366.68L454.51 366.64L454.51 366.59L454.51 366.54L454.51 366.5L454.51 366.45L454.51 366.4L454.52 366.36L454.52 366.31L454.52 366.26L454.52 366.22L454.52 366.17L454.52 366.13L454.52 366.08L454.52 366.03L454.52 365.99L454.51 365.94L454.51 365.89L454.51 365.85L454.51 365.8L454.51 365.75L454.51 365.71L454.5 365.66L454.5 365.61L454.5 365.57L454.5 365.52L454.49 365.47L454.49 365.43L454.49 365.38L454.48 365.34L454.48 365.29L454.47 365.24L454.47 182L196.36 182L196.36 461.06ZM387.19 378.67L385.97 378.74L384.75 378.86L383.56 379.02L382.37 379.23L381.21 379.48L380.06 379.77L378.93 380.11L377.82 380.48L376.73 380.9L375.66 381.35L374.62 381.84L373.6 382.37L372.6 382.93L371.63 383.53L370.68 384.16L369.76 384.83L368.87 385.53L368.01 386.26L367.18 387.02L366.38 387.81L365.61 388.62L364.87 389.47L364.17 390.34L363.5 391.24L362.87 392.16L362.28 393.11L361.72 394.08L361.2 395.07L360.73 396.08L360.29 397.12L359.89 398.17L359.54 399.24L359.23 400.33L358.97 401.44L358.75 402.56L358.58 403.69L358.45 404.84L358.37 406.01L358.35 407.18L358.35 453.85L445.16 378.64L388.43 378.64L387.19 378.67Z" id="c7pmgWmY6"></path><path d="M382.07 230.6L232.92 230.6" id="cfdnlixO2"></path><path d="M412.92 283.22L232.92 283.22" id="efqQA95yG"></path><path d="M356.92 340.46L232.92 340.46" id="g7qC4CS5G"></path><path d="M300.92 406.05L232.92 406.05" id="a40AIwpbuY"></path></defs><g><g><g><use xlink:href="#a1HwOtXVhZ" opacity="1" fill="#cecece" fill-opacity="1"></use><g><use xlink:href="#a1HwOtXVhZ" opacity="1" fill-opacity="0" stroke="#000000" stroke-width="1" stroke-opacity="0"></use></g></g><g><use xlink:href="#c7pmgWmY6" opacity="1" fill="#6a7b86" fill-opacity="1"></use><g><use xlink:href="#c7pmgWmY6" opacity="1" fill-opacity="0" stroke="#000000" stroke-width="1" stroke-opacity="0"></use></g></g><g><use xlink:href="#cfdnlixO2" opacity="1" fill="#6a7b86" fill-opacity="1"></use><g><use xlink:href="#cfdnlixO2" opacity="1" fill-opacity="0" stroke="#6a7b86" stroke-width="10" stroke-opacity="1"></use></g></g><g><use xlink:href="#efqQA95yG" opacity="1" fill="#6a7b86" fill-opacity="1"></use><g><use xlink:href="#efqQA95yG" opacity="1" fill-opacity="0" stroke="#6a7b86" stroke-width="10" stroke-opacity="1"></use></g></g><g><use xlink:href="#g7qC4CS5G" opacity="1" fill="#6a7b86" fill-opacity="1"></use><g><use xlink:href="#g7qC4CS5G" opacity="1" fill-opacity="0" stroke="#6a7b86" stroke-width="10" stroke-opacity="1"></use></g></g><g><use xlink:href="#a40AIwpbuY" opacity="1" fill="#6a7b86" fill-opacity="1"></use><g><use xlink:href="#a40AIwpbuY" opacity="1" fill-opacity="0" stroke="#6a7b86" stroke-width="10" stroke-opacity="1"></use></g></g></g></g></svg>