<svg id="Layer_1" data-name="Layer 1" xmlns="http://www.w3.org/2000/svg" viewBox="0 0 105.29 105.29"><defs><style>.cls-1{fill:#cecece;}.cls-2{fill:#6a7b86;}</style></defs><title>googleDriveCircle</title><path class="cls-1" d="M52.62,0a52.65,52.65,0,1,0,52.67,52.62A52.65,52.65,0,0,0,52.62,0ZM85,64.42"/><path class="cls-2" d="M82.81,61a.73.73,0,0,0,0-.2,1.09,1.09,0,0,0-.05-.17h0L63.87,28.51a.74.74,0,0,0-.64-.37L46,28.09h0a.69.69,0,0,0-.37.1.7.7,0,0,0-.27.27h0L26.58,60.76a.75.75,0,0,0,0,.74l8.37,15.31h0c0,.07.09.1.14.15a.8.8,0,0,0,.13.13,1.05,1.05,0,0,0,.21.06.75.75,0,0,0,.16,0H73.05a.76.76,0,0,0,.65-.37l9-15.46h0a.66.66,0,0,0,.06-.2A1,1,0,0,0,82.81,61Zm-2.06-.74-16,0L55.18,43.49h0l-7.9-13.9,15.51.05ZM63,60.29l-17.19.05,8.7-15ZM46,30.34l7.67,13.51L43.87,60.71h0L35.62,74.92,28.09,61.15ZM72.62,75.69H36.9l5.81-10L45,61.84l19.34-.05h0l8.71,0,7.75,0Z"/></svg>