<svg id="Layer_1" data-name="Layer 1" xmlns="http://www.w3.org/2000/svg" viewBox="0 0 56.34 49.11"><defs><style>.cls-1{fill:#6a7b86;}</style></defs><title>googleDrive</title><path class="cls-1" d="M56.34,32.9a.66.66,0,0,0-.06-.2.58.58,0,0,0,0-.18h0L37.4.42a.76.76,0,0,0-.65-.37L19.52,0h0a.8.8,0,0,0-.38.1.78.78,0,0,0-.27.27h0L.1,32.68a.76.76,0,0,0,0,.73L8.46,48.72h0a1,1,0,0,0,.15.14s.07.1.12.13a1.29,1.29,0,0,0,.21.06.75.75,0,0,0,.16,0H46.57a.74.74,0,0,0,.65-.37l9-15.46h0a1.17,1.17,0,0,0,0-.2C56.3,33,56.34,33,56.34,32.9Zm-2.06-.75-16,.05L28.71,15.4h0L20.81,1.5l15.51.05Zm-17.75.05-17.18,0,8.7-15Zm-17-29.94,7.68,13.51-9.8,16.86h0L9.14,46.84,1.61,33.06ZM46.14,47.6H10.42l5.81-10,2.24-3.86,19.35,0h0l8.7,0,7.76,0Z"/></svg>