<svg id="Layer_1" data-name="Layer 1" xmlns="http://www.w3.org/2000/svg" viewBox="0 0 15.73 13.68"><defs><style>.cls-1{fill:#75963d;}</style></defs><title>greenV</title><path class="cls-1" d="M6.48,7a55.17,55.17,0,0,1,5.4-4.92A10.12,10.12,0,0,1,15.45,0c.09,0,.45.12.18.39-.84.84-3.39,2.7-4.83,4.35C7.89,8,4.5,13,4.23,13.35a1.19,1.19,0,0,1-1.56.09.85.85,0,0,1-.3-.66c-.24-.57-.78-1.59-1-2.31a7.32,7.32,0,0,0-1.17-2A.89.89,0,0,1,.54,7.17a4.21,4.21,0,0,1,2,1.62c.36.57.84,1.41,1.11,1.86C4.44,9.57,5.52,8.1,6.48,7Z"/></svg>