<svg id="Layer_1" data-name="Layer 1" xmlns="http://www.w3.org/2000/svg" viewBox="0 0 63.67 63.67"><defs><style>.cls-1{fill:#6a7b86;}.cls-2{fill:#fff;fill-rule:evenodd;}</style></defs><title>inCircle</title><path class="cls-1" d="M31.82,0A31.84,31.84,0,1,0,63.67,31.82,31.84,31.84,0,0,0,31.82,0ZM51.39,39"/><path class="cls-2" d="M17.7,43.9h5.44V22.17H17.7ZM39.43,22.17a10,10,0,0,0-7.24,3.62V22.17H26.76V43.9h5.43V31.23a4.61,4.61,0,0,1,5.43-3.62c2.3.15,3.55,3.19,3.62,3.62V43.9l5.41,0v-15c-.19-2.17-1.27-6.63-7.22-6.71Zm-19-7.24a2.72,2.72,0,1,0,2.72,2.72,2.72,2.72,0,0,0-2.72-2.72Zm0,0"/></svg>