<svg id="Layer_1" data-name="Layer 1" xmlns="http://www.w3.org/2000/svg" viewBox="0 0 63.67 63.67"><defs><style>.cls-1{fill:#6a7b86;}.cls-2{fill:#fff;}</style></defs><title>mailCircle</title><path class="cls-1" d="M31.82,0A31.84,31.84,0,1,0,63.67,31.82,31.84,31.84,0,0,0,31.82,0ZM51.39,39"/><path class="cls-2" d="M31.84,31.45,47,22.13v-.67a1.67,1.67,0,0,0-1.67-1.67H18.31a1.68,1.68,0,0,0-1.68,1.67v.67Z"/><path class="cls-2" d="M32.58,34.33a1.43,1.43,0,0,1-1.49,0L16.63,25.48V42.37A1.67,1.67,0,0,0,18.31,44H45.37A1.67,1.67,0,0,0,47,42.37V25.48Z"/></svg>