<svg id="Layer_1" data-name="Layer 1" xmlns="http://www.w3.org/2000/svg" viewBox="0 0 54.03 64.67"><defs><style>.cls-1{fill:#6a7b86;}</style></defs><title>pdf</title><path class="cls-1" d="M52.1,27.06H48.79V16.22L32.58,0h-28A4.57,4.57,0,0,0,0,4.56V60.1a4.57,4.57,0,0,0,4.56,4.57H44.23a4.57,4.57,0,0,0,4.56-4.57V52.18H52.1A2,2,0,0,0,54,50.08V29.15A2,2,0,0,0,52.1,27.06ZM33.52,3.45,45.34,15.28h-9a2.79,2.79,0,0,1-2.78-2.78ZM47.61,60.1a3.38,3.38,0,0,1-3.38,3.38H4.56A3.37,3.37,0,0,1,1.19,60.1V4.56A3.37,3.37,0,0,1,4.56,1.19H32.09l.24.24V12.5a4,4,0,0,0,4,4H47.36l.25.25V27.06h-38a2,2,0,0,0-1.93,2.09V50.08a2,2,0,0,0,1.93,2.1h38Zm-2-21a1.3,1.3,0,0,1,1.21,1.19,1.16,1.16,0,0,1-1.21,1H41.3v3.52a1,1,0,0,1-1,1,1.06,1.06,0,0,1-1.18-1V35.35a1.06,1.06,0,0,1,1.18-1h5.88a1,1,0,0,1,1.17,1,1.16,1.16,0,0,1-1.17,1.14H41.3v2.66ZM31.25,45.9h-4a1.06,1.06,0,0,1-1.16-1V35.35a1.14,1.14,0,0,1,1.16-1H31.1C38.75,34.32,38.58,45.9,31.25,45.9ZM24,38.41a4,4,0,0,1-4.13,4.12h-2.8v2.21A1.05,1.05,0,0,1,16,45.9a1.14,1.14,0,0,1-1.14-1.16V35.32A1.16,1.16,0,0,1,16,34.16h3.87A4,4,0,0,1,24,38.41Z"/><path class="cls-1" d="M28.32,36.36v7.5H31.1c4.52,0,4.72-7.5,0-7.5Z"/><path class="cls-1" d="M17.06,36.27v4.17h2.8a2.09,2.09,0,0,0,0-4.17Z"/></svg>