<svg id="Layer_1" data-name="Layer 1" xmlns="http://www.w3.org/2000/svg" viewBox="0 0 102.53 102.53"><defs><style>.cls-1{fill:#e9e9e9;}.cls-2{fill:#6a7b86;}</style></defs><title>pdfCircle</title><circle class="cls-1" cx="51.26" cy="51.26" r="51.26"/><path class="cls-2" d="M44.31,53.2v4.17H47.1a2.06,2.06,0,0,0,2-2,2.08,2.08,0,0,0-2-2.15Z"/><path class="cls-2" d="M55.57,53.29v7.5h2.78c4.52,0,4.72-7.5,0-7.5Z"/><path class="cls-2" d="M79.35,44H76V33.15L59.83,16.93h-28a4.56,4.56,0,0,0-4.56,4.56V77a4.56,4.56,0,0,0,4.56,4.56H71.48A4.56,4.56,0,0,0,76,77V69.11h3.31A2,2,0,0,0,81.28,67V46.08A2,2,0,0,0,79.35,44ZM60.77,20.39,72.59,32.21h-9a2.78,2.78,0,0,1-2.78-2.78ZM74.86,77a3.38,3.38,0,0,1-3.38,3.37H31.81A3.38,3.38,0,0,1,28.43,77V21.49a3.38,3.38,0,0,1,3.38-3.37H59.34l.24.24V29.43a4,4,0,0,0,4,4H74.61l.25.25V44h-38a2,2,0,0,0-1.93,2.09V67a2,2,0,0,0,1.93,2.1h38Zm-2-21A1.31,1.31,0,0,1,74,57.27a1.18,1.18,0,0,1-1.21,1H68.54v3.51a1,1,0,0,1-1,1,1.06,1.06,0,0,1-1.19-1V52.28a1.06,1.06,0,0,1,1.19-1h5.88a1,1,0,0,1,1.17,1,1.16,1.16,0,0,1-1.17,1.14H68.54v2.66ZM58.5,62.83h-4a1.05,1.05,0,0,1-1.16-1v-9.5a1.14,1.14,0,0,1,1.16-1h3.83C66,51.25,65.83,62.83,58.5,62.83Zm-7.26-7.48a4,4,0,0,1-4.14,4.11H44.31v2.22a1.05,1.05,0,0,1-1.07,1.15,1.13,1.13,0,0,1-1.14-1.15V52.25a1.15,1.15,0,0,1,1.14-1.15H47.1A4,4,0,0,1,51.24,55.35Z"/></svg>