<svg id="Layer_1" data-name="Layer 1" xmlns="http://www.w3.org/2000/svg" viewBox="0 0 46.94 39.13"><defs><style>.cls-1{fill:#6a8c2f;}</style></defs><title>sendGreen</title><path class="cls-1" d="M22.94,39.13a1.61,1.61,0,0,1-.65-.35L22,38.57a.81.81,0,0,1-.06-.13.91.91,0,0,1-.07-.14L2.64,5.54C1.8,4.11,1,2.68.14,1.24A.83.83,0,0,1,.09.41.84.84,0,0,1,.66,0l.77.12L38,6.64c2.65.47,5.3.94,7.95,1.45a1.58,1.58,0,0,1,1,.69c.18.44-.3.75-.73.93a2.44,2.44,0,0,0-.28.14l-3.27,1.69q-7,3.63-14,7.23A1.57,1.57,0,0,0,27.68,20q-1,4.62-2,9.24l-.94,4.32c-.35,1.62-.7,3.24-1.09,4.86a1.26,1.26,0,0,1-.69.75ZM3.39,3.68l19,32.49.25-.85c.05-.18.09-.32.12-.46l1-4.55Q24.94,25,26.09,19.8a1,1,0,0,0-.44-1.24L9.53,7.63l-5-3.39-.21-.11ZM5.3,2.33l-.18.44L5.44,3c.16.12.32.24.49.35l5,3.4Q18.65,12,26.34,17.22a1.61,1.61,0,0,0,1,.36h0a1.73,1.73,0,0,0,.75-.23q5.25-2.75,10.52-5.45l3.94-2,.36-.22.73-.45Z"/></svg>