<svg id="Layer_1" data-name="Layer 1" xmlns="http://www.w3.org/2000/svg" viewBox="0 0 63 63"><defs><style>.cls-1{fill:#0a1621;}.cls-2{fill:#fff;}</style></defs><title>sendCircle</title><circle class="cls-1" cx="31.5" cy="31.5" r="31.5"/><path class="cls-2" d="M32.37,51.77c-.13,0-.34-.15-.51-.27l-.24-.16a.46.46,0,0,1-.05-.1l-.05-.11L16.67,25.64c-.65-1.11-1.3-2.22-1.93-3.34a.64.64,0,0,1,0-.64.62.62,0,0,1,.45-.32l.59.1L44.1,26.57c2.06.37,4.12.74,6.17,1.15a1.19,1.19,0,0,1,.78.54c.14.33-.24.57-.57.72l-.22.1-2.55,1.31Q42.27,33.19,36.8,36a1.24,1.24,0,0,0-.71.92q-.78,3.59-1.58,7.17l-.73,3.35c-.28,1.26-.55,2.52-.87,3.78a.93.93,0,0,1-.53.58ZM17.26,24.2,32,49.48l.19-.66.1-.36.78-3.54q.9-4.06,1.81-8.15a.81.81,0,0,0-.34-1Q28.27,31.56,22,27.28l-3.87-2.64a.59.59,0,0,0-.16-.08Zm1.49-1-.14.34.24.18c.13.09.25.19.38.27l3.89,2.65q6,4.08,11.93,8.17a1.31,1.31,0,0,0,.79.28h0a1.47,1.47,0,0,0,.59-.18q4.08-2.11,8.18-4.21l3.07-1.57.29-.17.56-.35Z"/></svg>